<svg width="76" height="63" viewBox="0 0 76 63" fill="none" xmlns="http://www.w3.org/2000/svg">
<path d="M75.1 10.6131L65.6 0.613126C64.8 -0.186874 63.6 -0.186875 62.8 0.513125C62 1.21313 62 2.51312 62.7 3.41312L69 10.0131H54C51.7 10.0131 49.4 11.0131 47.9 12.8131L19 46.6131C18.2 47.5131 17.2 48.0131 16 48.0131H0V52.0131H16C18.3 52.0131 20.6 51.0131 22.1 49.2131L51 15.4131C51.8 14.5131 52.8 14.0131 54 14.0131H69L62.7 20.6131C61.9 21.4131 61.9 22.7131 62.8 23.4131C63.6 24.2131 64.9 24.2131 65.6 23.4131L75.1 13.4131C75.8 12.6131 75.8 11.4131 75.1 10.6131Z" fill="white"/>
<path d="M28.6 26.9127L31.7 24.3127L22.1 12.8127C20.5 11.0127 18.3 10.0127 16 10.0127H0V14.0127H16C17.2 14.0127 18.3 14.5127 19.1 15.4127L28.6 26.9127Z" fill="white"/>
<path d="M75.1001 48.7133L65.6001 38.7133C64.8001 37.9133 63.6 37.9133 62.8 38.7133C62 39.5133 62 40.7133 62.7001 41.5133L69 48.0133H54.5C53 48.0133 51.6 47.3133 50.7001 46.2133L41.4 35.1133L38.3 37.7133L47.6 48.8133C49.3 50.8133 51.8 52.0133 54.5 52.0133H69L62.7001 58.6133C61.9001 59.4133 61.9001 60.7133 62.7001 61.5133C63.5 62.3133 64.8001 62.3133 65.6001 61.4133L75.1001 51.4133C75.7001 50.6133 75.7001 49.5133 75.1001 48.7133Z" fill="white"/>
</svg>