<svg width="66" height="66" viewBox="0 0 66 66" fill="none" xmlns="http://www.w3.org/2000/svg">
<path d="M32.8477 0C28.9169 0 25.0737 0.687064 21.4221 2.04203L22.3747 4.60825C25.7197 3.36688 29.244 2.7373 32.8477 2.7373C49.4508 2.7373 62.958 16.2445 62.958 32.8477C62.958 49.4508 49.4508 62.958 32.8477 62.958C16.2445 62.958 2.7373 49.4508 2.7373 32.8477C2.7373 23.8214 6.79262 15.3357 13.6865 9.63805V19.1611H16.4238V5.47461H2.7373V8.21191H11.1217C4.09638 14.4119 0 23.3602 0 32.8477C0 50.959 14.7363 65.6953 32.8477 65.6953C50.959 65.6953 65.6953 50.959 65.6953 32.8477C65.6953 14.7363 50.959 0 32.8477 0Z" fill="white"/>
<path d="M24.6353 43.7959H21.8979V46.5332H43.7964V43.7959H41.0591V39.1233L34.7824 32.8467L41.0591 26.57V21.8975H43.7964V19.1602H21.8979V21.8975H24.6353V26.57L30.9119 32.8467L24.6353 39.1233V43.7959ZM27.3726 25.4368V21.8975H38.3218V25.4368L32.8472 30.9114L27.3726 25.4368ZM32.8472 34.782L38.3218 40.2566V43.7959H27.3726V40.2566L32.8472 34.782Z" fill="white"/>
<path d="M27.3735 52.0088H24.6362V54.7461H27.3735V52.0088Z" fill="white"/>
<path d="M34.2168 52.0088H31.4795V54.7461H34.2168V52.0088Z" fill="white"/>
<path d="M41.0596 52.0088H38.3223V54.7461H41.0596V52.0088Z" fill="white"/>
</svg>
